# xmcd
#
# Track frame offsets: 
#        150
#        34362
#        58040
#        77732
#        99692
#        124887
#        137332
#        160540
#        200152
#        231270
#        245422
#
# Disc length: 3645 seconds
#
# Revision: 2
# Processed by: cddbd v1.5.2PL0 Copyright (c) Steve Scherf et al.
# Submitted via: ExactAudioCopy v0.99pb5
#
DISCID=950e3b0b
DTITLE=Sting - Happy Birthday Sting Disc 1
DYEAR=1991
DGENRE=Rock
TTITLE0=Jeremiah Blues
TTITLE1=Mad About You
TTITLE2=Driven To Tears
TTITLE3=Ain`t No Sunshine
TTITLE4=Why Should I Cry For You
TTITLE5=Be Still My Beating Heart
TTITLE6=Roxenne
TTITLE7=Medley
TTITLE8=King Of Pain
TTITLE9=Fortress Around The World
TTITLE10=The Wild Wild Sea
EXTD=
EXTT0=
EXTT1=
EXTT2=
EXTT3=
EXTT4=
EXTT5=
EXTT6=
EXTT7=
EXTT8=
EXTT9=
EXTT10=
PLAYORDER=
